<?xml version="1.0" encoding="UTF-8" standalone="no"?>
<svg
   xmlns:dc="http://purl.org/dc/elements/1.1/"
   xmlns:cc="http://creativecommons.org/ns#"
   xmlns:rdf="http://www.w3.org/1999/02/22-rdf-syntax-ns#"
   xmlns:svg="http://www.w3.org/2000/svg"
   xmlns="http://www.w3.org/2000/svg"
   viewBox="0 0 1056 816"
   height="816"
   width="1056"
   xml:space="preserve"
   id="svg2"
   version="1.1"><metadata
     id="metadata8"><rdf:RDF><cc:Work
         rdf:about=""><dc:format>image/svg+xml</dc:format><dc:type
           rdf:resource="http://purl.org/dc/dcmitype/StillImage" /></cc:Work></rdf:RDF></metadata><defs
     id="defs6"><clipPath
       id="clipPath18"
       clipPathUnits="userSpaceOnUse"><path
         id="path16"
         d="M 0,612 H 792 V 0 H 0 Z" /></clipPath></defs><g
     transform="matrix(1.3333333,0,0,-1.3333333,0,816)"
     id="g10"><g
       id="g12"><g
         clip-path="url(#clipPath18)"
         id="g14"><g
           transform="translate(233.9578,252.1943)"
           id="g20"><path
             id="path22"
             style="fill:#201d1d;fill-opacity:1;fill-rule:evenodd;stroke:none"
             d="m 0,0 c -30.375,42.306 -11.673,91.126 31.536,115.891 -0.451,-0.323 0.516,-1.161 0,-1.483 C 26.377,109.313 20.573,100.993 26.893,94.673 -6.32,77.712 -19.154,37.921 0,0" /></g><g
           transform="translate(291.0325,398.7184)"
           id="g24"><path
             id="path26"
             style="fill:#201d1d;fill-opacity:1;fill-rule:evenodd;stroke:none"
             d="m 0,0 c -13.027,-3.225 -16.51,-7.481 -16.832,-12.06 0,-0.516 0,-1.032 0.193,-1.548 -79.453,-30.569 -71.263,-119.308 -38.759,-145.621 0.322,-0.193 -0.322,-1.741 -1.161,-1.032 -41.403,33.149 -44.37,116.084 24.055,158.52 1.29,-0.323 2.967,-0.968 4.515,-1.161 C -15.865,-1.741 -7.481,1.677 0,0" /></g><g
           transform="translate(211.1279,257.9985)"
           id="g28"><path
             id="path30"
             style="fill:#201d1d;fill-opacity:1;fill-rule:evenodd;stroke:none"
             d="M 0,0 C -23.862,44.886 -13.027,76.293 -0.322,98.22 -3.031,100.929 -12.705,77.132 -19.025,80.356 -25.41,54.689 -21.024,24.12 0,0" /></g><g
           transform="translate(414.7268,271.9286)"
           id="g32"><path
             id="path34"
             style="fill:#201d1d;fill-opacity:1;fill-rule:evenodd;stroke:none"
             d="M 0,0 C -3.676,-7.997 -6.191,-17.026 -7.159,-25.861 -7.481,-38.05 -4.514,-44.177 0,-46.24 Z m 0,25.474 v -5.74 h -12.705 c -2.321,-13.801 -4.514,-27.731 -6.836,-41.468 -1.999,-12.575 -4.192,-22.636 10.835,-17.154 -0.129,-1.87 -0.452,-3.741 -0.839,-5.611 -13.801,-4.256 -23.023,0.129 -23.475,10.706 l 8.513,53.527 h -19.025 c -2.192,-13.801 -4.514,-27.731 -6.707,-41.468 -2.321,-12.575 -4.192,-22.636 10.835,-17.154 -0.323,-1.87 -0.645,-3.741 -0.968,-5.611 -13.349,-4.256 -23.023,0.516 -23.41,10.706 l 8.513,53.527 h -8.964 l 0.967,5.74 h 9.029 l 4.643,28.892 12.189,4.257 -5.159,-33.149 h 19.025 l 4.708,28.892 12.317,4.257 -5.352,-33.149 z m -134.013,-64.556 c -44.886,6.772 -58.751,64.75 -24.7,91.9 34.051,27.022 81.452,1.032 76.422,-48.368 -5.03,-49.465 -52.238,-66.104 -92.093,-41.339 40.178,-31.923 99.961,-14.253 108.99,41.339 8.964,55.527 -60.944,87.515 -97.317,53.657 -36.051,-33.794 -18.509,-95.641 28.698,-97.189 M 6.191,10.383 V -16.51 C 5.869,-18.831 5.482,-21.089 5.159,-23.604 4.643,-28.57 5.03,-31.923 6.191,-33.793 v -12.77 C 3.998,-47.079 1.806,-46.885 0,-46.24 V 0 c 1.806,3.74 3.805,7.159 6.191,10.383 m 0,9.351 H 0 v 5.74 h 6.191 z m 0,0 H 6.32 l 0.839,5.74 H 6.191 Z m 17.026,-48.11 v -7.288 C 17.542,-41.274 11.35,-45.402 6.191,-46.563 v 12.77 c 2.838,-5.289 9.803,-1.871 17.026,5.417 m 0,52.689 V 18.702 C 15.026,15.155 9.351,3.225 6.191,-16.51 v 26.893 c 4.644,6.127 10.319,11.222 17.026,13.93 M 134.013,-3.225 c -3.031,-7.158 -5.03,-14.768 -5.869,-22.636 -0.322,-10.835 2.064,-16.961 5.869,-19.541 z m 0,28.699 V 3.547 c -7.159,-14.446 -19.348,-32.246 -28.505,-48.239 h -5.031 c 0.323,15.606 -0.516,31.407 -5.675,47.078 -6.513,-15.8 -14.704,-31.472 -24.055,-47.078 h -4.643 c -0.516,33.471 -3.032,60.686 -12.383,64.233 0,0.193 -0.129,0.322 -0.129,0.322 l -8.706,-53.85 c -0.838,-8.642 5.675,-4.256 8.706,-6.127 l 0.645,-4.385 H 31.343 l 4.063,25.668 c -3.354,-6.127 -7.675,-11.931 -12.189,-16.833 v 7.288 c 5.675,5.933 11.35,14.446 14.51,23.281 l 3.354,20.702 c -7.03,4.45 -13.027,5.288 -17.864,3.095 v 5.611 c 5.804,2.386 12.318,3.031 19.476,1.161 h 11.222 c 0.129,0 0.322,0.194 0.322,0.194 h 13.35 c 5.03,-16.317 7.674,-32.956 9.029,-49.272 9.673,16.316 16.703,32.633 20.701,49.078 1.484,0.194 2.967,0.194 4.515,0.194 5.159,-16.833 7.803,-33.794 10.125,-50.626 8.513,17.155 24.055,36.502 14.381,48.046 v 2.386 z m 0,-21.927 c 4.321,9.029 6.836,16.703 5.675,21.927 h -5.675 z m 24.507,20.766 v -5.611 c -9.158,-3.934 -15.156,-18.186 -17.994,-42.306 -1.805,-17.541 7.997,-14.962 17.994,-4.772 v -7.288 c -8.836,-8.706 -18.638,-13.607 -24.507,-9.738 v 42.177 c 5.159,12.576 13.672,23.088 24.507,27.538 m 0,-59.977 v 7.288 c 5.546,5.933 11.221,14.446 14.575,23.281 l 3.289,20.702 c -6.966,4.45 -12.963,5.288 -17.864,3.095 v 5.611 c 5.868,2.386 12.382,3.031 19.54,1.161 h 11.673 l -9.48,-59.461 c -1.032,-8.642 5.675,-4.256 8.513,-6.127 l 0.838,-4.385 H 166.71 l 3.998,25.668 c -3.289,-6.127 -7.674,-11.931 -12.188,-16.833" /></g></g></g></g></svg>