<?xml version="1.0" encoding="utf-8"?>
<!-- Generator: Adobe Illustrator 19.2.1, SVG Export Plug-In . SVG Version: 6.00 Build 0)  -->
<svg version="1.1" id="layer" xmlns="http://www.w3.org/2000/svg" xmlns:xlink="http://www.w3.org/1999/xlink" x="0px" y="0px"
	 viewBox="0 0 652 652" style="enable-background:new 0 0 652 652;" xml:space="preserve">
<style type="text/css">
	.st0{fill:#00A291;}
	.st1{fill:#1B458F;}
</style>
<g>
	<g transform="matrix(1.33333 0 0 -1.33333 0 96)">
		<path class="st0" d="M62.1-225.1c-7.5,13.3-15.3,37.1-1.9,65.5c7,14.8,20,25.8,31.1,31.7c-6.3,8.2,1.7,17.4,5.5,21.1
			c0.5,0.4,0,1.1-0.5,0.9c-15.8-7.6-32.4-25.4-40-39.8c-19.1-36.3-4.1-66.9,4.6-79.9C62.1-227.6,63.8-228.2,62.1-225.1"/>
		<path class="st0" d="M61.8-238.8c-27.2,26.3-28.7,71.1-11.3,103.9C60.4-116.3,77-100,96-91.2c3.4,1.5,6.8,2.7,10.3,3.7
			c-2.7,5.7,4.9,12,16.4,13.9c0.2,0.3-0.1,0.6-0.5,0.7c-4.9,2.1-28.1-5.6-32.4-2.2c-18-10.9-34.2-25.8-44.7-44.6
			c-22.9-40.9-16.6-91.7,16-120.9C64.7-243.7,65.5-242.1,61.8-238.8"/>
		<path class="st0" d="M36.5-118.1c0.4,0.2,0.8,0.3,1.1-0.2c-9.2-14.7-14.4-31.9-14.4-50.6c0-17.9,5-35.4,14.4-50.5
			c1.6-2.6,0.8-3.7-1.8,0c-13.2,18.4-20.8,35-20.5,62.3c0.1,7.1,1.1,14.1,2.5,20.2C23.5-140.1,32-120.8,36.5-118.1"/>
		<path class="st1" d="M214.9-254.9c-3.5-1.6-6.7-2.5-9.8-2.5c-4.6,0-8.3,1.5-11.2,4.5c-2.8,3-4.2,6.9-4.2,11.7c0,1.9,0.2,4.3,0.7,7
			l8.4,47.1h-9.8l1.1,5.2h9.6l4.3,23.5l12.9,3.8l-4.9-27.3h17.4l-1.1-5.2h-17.1l-8.7-49c-0.4-2.3-0.6-4.7-0.6-7c0-2.7,0.6-4.7,1.7-6
			c1.1-1.4,2.9-2,5.2-2c2,0,4.5,0.7,7.3,2.2L214.9-254.9z"/>
		<path class="st1" d="M248.6-254.9c-3.4-1.6-6.7-2.5-9.8-2.5c-4.6,0-8.4,1.5-11.2,4.5c-2.8,3-4.2,6.9-4.2,11.7c0,1.9,0.2,4.3,0.7,7
			l8.4,47.1h-9.8l1.1,5.2h9.6l4.2,23.5l12.9,3.8l-4.9-27.3h20.5L265-187h-20.3l-8.7-49c-0.4-2.3-0.6-4.7-0.6-7c0-2.7,0.6-4.7,1.7-6
			c1.1-1.4,2.9-2,5.2-2c2,0,4.5,0.7,7.4,2.2L248.6-254.9z"/>
		<path class="st1" d="M316-255.6l0.7,4.4l-1.1,0.1c-4.3,0.3-6.8,0.6-7.6,0.9c-0.8,0.3-1.2,1.2-1.2,2.6c0,2.7,0.3,5.9,1,9.6l10,56.3
			h-12.1c-2.1,0.5-4.3,0.9-6.4,1.2c-1.4,0.2-2.9,0.4-4.4,0.4c-10.8,0-20.9-6.3-30.3-19c-9.4-12.7-14-26.4-14-41.1
			c0-5.7,1.1-10,3.3-12.8c2.2-2.9,5.5-4.3,9.8-4.3c5.4,0,11.2,3,17.4,8.9c6.2,5.9,11.9,13.8,16.9,23.7l-5.5-31L316-255.6z
			 M269.4-247.2c-2,0-3.4,0.8-4.4,2.4c-1,1.6-1.5,4.1-1.5,7.4c0,6.6,1.1,13.9,3.2,22.1c2.2,8.2,4.7,14.7,7.7,19.7
			c3.8,6.2,8.7,9.2,14.8,9.2c2.6,0,5.2-0.4,7.7-1.1c2.6-0.8,5-1.9,7.3-3.4l-4.2-23.5C287.3-236.2,277.1-247.2,269.4-247.2"/>
		<path class="st1" d="M329.8-256.4c0.3,5.3,0.5,9.1,0.5,11.3c0,20.3-2.9,38.3-8.8,53.8c-1.3,3.5-4.4,5.2-9.4,5.2l-1.1,0.1l0.7,4.3
			h20c5.2-17.6,8.4-35.7,9.6-53.9c12.3,22.6,19.8,40.4,22.4,53.4h3.5c6.5-17.4,10.4-35.7,11.6-54.9l5.9,9.7
			c9.4,15.2,14,26.6,14,34.2c0,4.5-1.3,8.4-4,11.6h14.9c0.2-1.4,0.3-2.6,0.3-3.5c0-6-4.2-15.7-12.4-29.2c-14.2-23-23-37-26.4-42H367
			c0.3,4.5,0.5,7.7,0.5,9.4c0,15.2-2.1,29.4-6.4,42.8c-6.3-14.7-14.8-31-25.4-49c-0.2-0.3-0.8-1.4-1.8-3.3H329.8z M463.3-255.6
			l0.7,4.4l-1.1,0.1c-4.3,0.3-6.8,0.6-7.6,0.9c-0.8,0.3-1.1,1.2-1.1,2.6c0,2.7,0.3,5.9,1,9.6l10,56.3h-12.1
			c-2.5,0.5-4.6,0.9-6.4,1.2c-1.8,0.3-3.2,0.4-4.4,0.4c-10.8,0-20.9-6.3-30.3-19c-9.4-12.7-14-26.4-14-41.1c0-5.7,1.1-10,3.3-12.8
			c2.2-2.9,5.4-4.3,9.8-4.3c5.4,0,11.2,3,17.4,8.9c6.2,5.9,11.9,13.8,16.9,23.7l-5.5-31H463.3z M416.6-247.2c-2,0-3.4,0.8-4.4,2.4
			c-1,1.6-1.5,4.1-1.5,7.4c0,6.6,1.1,13.9,3.2,22.1c2.1,8.2,4.7,14.7,7.7,19.7c3.8,6.2,8.7,9.2,14.8,9.2c2.6,0,5.2-0.4,7.6-1.1
			c2.6-0.8,5-1.9,7.3-3.4l-4.2-23.5C434.6-236.2,424.4-247.2,416.6-247.2 M77.5-250.2c34.4-19,73.9-2.2,86.5,26.3
			c12.1,27.3,4.8,63.3-19.6,76.8c-8.6,4.8-17.5,7-25.9,7c-28.7,0-51.9-24.3-51.9-54.2c0-27.4,19.5-50.1,44.8-53.7
			c3.5-0.4,4.5-1.4-0.1-1c-19.1,1.3-34.9,14.8-41.4,26.1c-5,8.6-7.5,18.3-8.1,25.9c-1.1,12.8,2.1,25,7.6,35.2
			c16.7,30.5,55,39.4,85.4,22.6c30.4-16.8,41.5-55.1,24.7-85.6c-21.1-38.2-65-48-103.2-26.9c-7.5,4.4-8.6,7.3-2.9,3.9
			C74.9-248.7,76.2-249.5,77.5-250.2"/>
	</g>
</g>
</svg>
